<?xml version="1.0" encoding="utf-8"?>
<!-- Generator: Adobe Illustrator 22.0.1, SVG Export Plug-In . SVG Version: 6.00 Build 0)  -->
<svg version="1.1" id="Layer_1" xmlns="http://www.w3.org/2000/svg" xmlns:xlink="http://www.w3.org/1999/xlink" x="0px" y="0px"
	 viewBox="0 0 150 100" style="enable-background:new 0 0 150 100;" xml:space="preserve">
<style type="text/css">
	.st0{fill:#DFA22F;}
	.st1{fill:#3CB187;}
	.st2{fill:#CE1E5B;}
	.st3{fill:#392538;}
	.st4{fill:#BB242A;}
	.st5{fill:#72C5CD;}
	.st6{fill:#248C73;}
	.st7{fill:#62803A;}
</style>
<path class="st0" d="M89.5,6.5c-1.5-4.7-6.5-7.2-11.2-5.7c-4.7,1.5-7.2,6.5-5.7,11.2l23,70.9c1.6,4.4,6.3,6.8,10.8,5.5
	c4.7-1.4,7.6-6.4,6.1-11L89.5,6.5"/>
<path class="st1" d="M53.8,18.1c-1.5-4.7-6.5-7.2-11.2-5.7c-4.7,1.5-7.2,6.5-5.7,11.2l23,70.9c1.6,4.4,6.3,6.8,10.8,5.5
	c4.7-1.4,7.6-6.4,6.1-11L53.8,18.1"/>
<path class="st2" d="M118.5,65.2c4.7-1.5,7.2-6.5,5.7-11.2c-1.5-4.7-6.5-7.2-11.2-5.7l-70.9,23c-4.4,1.6-6.8,6.3-5.5,10.8
	c1.4,4.7,6.4,7.6,11,6.1L118.5,65.2"/>
<path class="st3" d="M56.8,85.3l16.9-5.5l-5.5-16.9l-16.9,5.5L56.8,85.3"/>
<path class="st4" d="M92.5,73.7c6.4-2.1,12.4-4,16.9-5.5L104,51.2L87,56.7L92.5,73.7"/>
<path class="st5" d="M106.9,29.5c4.7-1.5,7.2-6.5,5.7-11.2c-1.5-4.7-6.5-7.2-11.2-5.7l-70.9,23c-4.4,1.6-6.8,6.3-5.5,10.8
	c1.4,4.7,6.4,7.6,11,6.1L106.9,29.5"/>
<path class="st6" d="M45.2,49.6c4.6-1.5,10.6-3.4,16.9-5.5c-2.1-6.4-4-12.4-5.5-16.9l-16.9,5.5L45.2,49.6"/>
<path class="st7" d="M80.9,38l16.9-5.5c-1.8-5.6-3.7-11.3-5.5-16.9L75.4,21L80.9,38"/>
</svg>
